<?xml version="1.0" encoding="UTF-8" standalone="no"?>
<!-- Generator: Adobe Illustrator 15.1.0, SVG Export Plug-In . SVG Version: 6.00 Build 0)  -->

<svg
   xmlns:dc="http://purl.org/dc/elements/1.1/"
   xmlns:cc="http://creativecommons.org/ns#"
   xmlns:rdf="http://www.w3.org/1999/02/22-rdf-syntax-ns#"
   xmlns:svg="http://www.w3.org/2000/svg"
   xmlns="http://www.w3.org/2000/svg"
   xmlns:sodipodi="http://sodipodi.sourceforge.net/DTD/sodipodi-0.dtd"
   xmlns:inkscape="http://www.inkscape.org/namespaces/inkscape"
   version="1.1"
   id="Layer_1"
   x="0px"
   y="0px"
   width="100px"
   height="100px"
   viewBox="0 0 100 100"
   enable-background="new 0 0 100 100"
   xml:space="preserve"
   inkscape:version="0.91 r"
   sodipodi:docname="01d.svg"><metadata
     id="metadata9"><rdf:RDF><cc:Work
         rdf:about=""><dc:format>image/svg+xml</dc:format><dc:type
           rdf:resource="http://purl.org/dc/dcmitype/StillImage" /></cc:Work></rdf:RDF></metadata><defs
     id="defs7" /><sodipodi:namedview
     pagecolor="#ffffff"
     bordercolor="#666666"
     borderopacity="1"
     objecttolerance="10"
     gridtolerance="10"
     guidetolerance="10"
     inkscape:pageopacity="0"
     inkscape:pageshadow="2"
     inkscape:window-width="1920"
     inkscape:window-height="1028"
     id="namedview5"
     showgrid="false"
     inkscape:zoom="2.36"
     inkscape:cx="-135.59322"
     inkscape:cy="49.152542"
     inkscape:window-x="0"
     inkscape:window-y="0"
     inkscape:window-maximized="1"
     inkscape:current-layer="Layer_1" /><path
     d="m 73.785436,51.340337 -4.277217,0 c -1.182172,0 -2.139677,-0.945244 -2.139677,-2.111219 0,-1.165978 0.957505,-2.112279 2.139677,-2.112279 l 4.277217,0 c 1.182171,0 2.139676,0.946301 2.139676,2.112279 0,1.165975 -0.956436,2.111219 -2.139676,2.111219 z M 65.381852,37.28208 c -0.835544,0.824842 -2.1921,0.824842 -3.025504,0 -0.835545,-0.824846 -0.835545,-2.161917 0,-2.986759 l 3.025504,-2.986761 c 0.833404,-0.824845 2.189959,-0.824845 3.025502,0 0.833406,0.824844 0.833406,2.161916 0,2.986761 l -3.025502,2.986759 z m -15.12859,24.618586 c -7.089822,0 -12.838066,-5.673576 -12.838066,-12.671548 0,-6.99903 5.747174,-12.672606 12.838066,-12.672606 7.089821,0 12.835925,5.673576 12.835925,12.672606 0,6.997972 -5.746104,12.671548 -12.835925,12.671548 z m 0,-21.119601 c -4.726548,0 -8.558711,3.782033 -8.558711,8.448053 0,4.664962 3.833232,8.44805 8.558711,8.44805 4.725477,0 8.55657,-3.783088 8.55657,-8.44805 0,-4.66602 -3.830022,-8.448053 -8.55657,-8.448053 z m 0,-8.44805 c -1.182172,0 -2.139678,-0.946301 -2.139678,-2.112277 l 0,-4.223499 c 0,-1.165977 0.957506,-2.112276 2.139678,-2.112276 1.181101,0 2.139677,0.946299 2.139677,2.112276 l 0,4.223499 c 0,1.165976 -0.959645,2.112277 -2.139677,2.112277 z M 35.124673,37.28208 32.099168,34.295321 c -0.835543,-0.824845 -0.835543,-2.161917 0,-2.986761 0.835544,-0.824845 2.18996,-0.824845 3.025505,0 l 3.025503,2.986761 c 0.835544,0.824842 0.835544,2.161913 0,2.986759 -0.835544,0.824842 -2.18996,0.824842 -3.025503,0 z m -1.987761,11.947038 c 0,1.165975 -0.958576,2.111219 -2.139677,2.111219 l -4.279356,0 c -1.181102,0 -2.138608,-0.945244 -2.138608,-2.111219 0,-1.165978 0.958575,-2.112279 2.138608,-2.112279 l 4.279356,0 c 1.18217,0 2.139677,0.946301 2.139677,2.112279 z m 1.987761,11.947038 c 0.835543,-0.823789 2.189959,-0.823789 3.025503,0 0.835544,0.824843 0.835544,2.16297 0,2.986759 l -3.025503,2.986758 c -0.835545,0.824845 -2.189961,0.824845 -3.025505,0 -0.835543,-0.823787 -0.835543,-2.161913 0,-2.986758 l 3.025505,-2.986759 z m 15.128589,4.949065 c 1.181101,0 2.139677,0.945243 2.139677,2.11122 l 0,4.224553 c 0,1.165977 -0.958576,2.112277 -2.139677,2.112277 -1.182172,0 -2.139678,-0.9463 -2.139678,-2.112277 l 0,-4.224553 c 0,-1.165977 0.957506,-2.11122 2.139678,-2.11122 z m 15.12859,-4.949065 3.025502,2.986759 c 0.833406,0.824845 0.833406,2.162971 0,2.986758 -0.835543,0.824845 -2.192098,0.824845 -3.025502,0 l -3.025504,-2.986758 c -0.835545,-0.823789 -0.835545,-2.161916 0,-2.986759 0.833404,-0.824845 2.188889,-0.824845 3.025504,0 z"
     id="path3"
     style="clip-rule:evenodd;fill:#ffffff;fill-rule:evenodd"
     inkscape:connector-curvature="0" /></svg>