<?xml version="1.0" encoding="UTF-8" standalone="no"?>
<!-- Generator: Adobe Illustrator 15.1.0, SVG Export Plug-In . SVG Version: 6.00 Build 0)  -->

<svg
   xmlns:dc="http://purl.org/dc/elements/1.1/"
   xmlns:cc="http://creativecommons.org/ns#"
   xmlns:rdf="http://www.w3.org/1999/02/22-rdf-syntax-ns#"
   xmlns:svg="http://www.w3.org/2000/svg"
   xmlns="http://www.w3.org/2000/svg"
   xmlns:sodipodi="http://sodipodi.sourceforge.net/DTD/sodipodi-0.dtd"
   xmlns:inkscape="http://www.inkscape.org/namespaces/inkscape"
   version="1.1"
   id="Layer_1"
   x="0px"
   y="0px"
   width="100px"
   height="100px"
   viewBox="0 0 100 100"
   enable-background="new 0 0 100 100"
   xml:space="preserve"
   inkscape:version="0.91 r"
   sodipodi:docname="01n.svg"><metadata
     id="metadata9"><rdf:RDF><cc:Work
         rdf:about=""><dc:format>image/svg+xml</dc:format><dc:type
           rdf:resource="http://purl.org/dc/dcmitype/StillImage" /></cc:Work></rdf:RDF></metadata><defs
     id="defs7" /><sodipodi:namedview
     pagecolor="#ffffff"
     bordercolor="#666666"
     borderopacity="1"
     objecttolerance="10"
     gridtolerance="10"
     guidetolerance="10"
     inkscape:pageopacity="0"
     inkscape:pageshadow="2"
     inkscape:window-width="1920"
     inkscape:window-height="1028"
     id="namedview5"
     showgrid="false"
     inkscape:zoom="2.36"
     inkscape:cx="-184.46699"
     inkscape:cy="47.457626"
     inkscape:window-x="0"
     inkscape:window-y="0"
     inkscape:window-maximized="1"
     inkscape:current-layer="Layer_1" /><path
     d="m 50.889205,66.235288 c -9.692376,0 -17.549222,-7.856846 -17.549222,-17.547778 0,-9.692376 7.856846,-17.549222 17.549222,-17.549222 1.104196,0 2.180639,0.113975 3.227867,0.310023 -0.19305,0.842493 -0.304248,1.715659 -0.304248,2.615061 0,6.461611 5.238904,11.699056 11.700539,11.699056 0.899481,0 1.772541,-0.11143 2.615062,-0.304229 0.194483,1.048668 0.308558,2.123653 0.308558,3.229311 0,9.690932 -7.856846,17.547778 -17.547778,17.547778 z M 48.27414,37.291233 c -5.200796,1.189072 -9.083888,5.834157 -9.083888,11.396277 0,6.460167 5.23733,11.698973 11.698953,11.698973 5.560695,0 10.20578,-3.883013 11.394847,-9.083912 C 55.184734,49.980434 49.594837,44.390537 48.27414,37.291233 Z"
     id="path3"
     style="clip-rule:evenodd;fill:#ffffff;fill-rule:evenodd"
     inkscape:export-xdpi="217.52718"
     inkscape:export-ydpi="217.52718"
     inkscape:connector-curvature="0" /></svg>